<?xml version="1.0" standalone="no"?><!DOCTYPE svg PUBLIC "-//W3C//DTD SVG 1.1//EN" "http://www.w3.org/Graphics/SVG/1.1/DTD/svg11.dtd"><svg t="1600755148797" class="icon" viewBox="0 0 1024 1024" version="1.1" xmlns="http://www.w3.org/2000/svg" p-id="3240" xmlns:xlink="http://www.w3.org/1999/xlink" width="200" height="200"><defs><style type="text/css"></style></defs><path d="M375.47008 1.54624h294.5024v88.35072h-294.5024z" p-id="3241"></path><path d="M816.06144 80.0768H748.4928v38.28736c0 16.68608-13.94176 30.42816-31.11936 30.42816H329.10336c-18.23232 0-31.104-13.74208-31.104-30.42816V80.0768H230.43072c-62.21312 0-114.76992 44.17536-114.76992 101.10976v736.2304c0 57.92256 52.5568 105.04704 114.76992 105.04704h584.55552c63.26784 0 114.76992-47.11424 114.76992-105.04704V181.18656c1.07008-56.9344-51.49696-101.10976-113.69472-101.10976z m-105.82016 748.0832h-375.04c-24.73984 0-44.8-15.19104-44.8-33.92s20.06016-33.92 44.8-33.92h375.04c24.73984 0 44.8 15.19104 44.8 33.92s-20.06016 33.92-44.8 33.92z m0-226.56h-375.04c-24.73984 0-44.8-15.19104-44.8-33.92s20.06016-33.92 44.8-33.92h375.04c24.73984 0 44.8 15.19104 44.8 33.92s-20.06016 33.92-44.8 33.92z m0-216.32h-375.04c-24.74496 0-44.8-15.18592-44.8-33.92S310.45632 317.44 335.20128 317.44h375.04c24.73984 0 44.8 15.18592 44.8 33.92s-20.06016 33.92-44.8 33.92z" p-id="3242"></path></svg>