<?xml version="1.0" standalone="no"?><!DOCTYPE svg PUBLIC "-//W3C//DTD SVG 1.1//EN" "http://www.w3.org/Graphics/SVG/1.1/DTD/svg11.dtd"><svg t="1602763618439" class="icon" viewBox="0 0 1024 1024" version="1.1" xmlns="http://www.w3.org/2000/svg" p-id="5479" xmlns:xlink="http://www.w3.org/1999/xlink" width="200" height="200"><defs><style type="text/css"></style></defs><path d="M-0.512 525.312c0 1.53600001 0 3.072 0.512 5.12 1.024 6.144 4.608 11.776 9.216 15.36l258.048 258.048c10.24 10.24 26.112 10.24 36.352 0s10.24-26.112 0-36.352l-216.576-216.576 912.384 0c13.312 0 24.576-11.264 24.576-25.6s-10.752-25.6-24.576-25.6l-912.384 0 216.576-216.576c10.24-10.24 10.24-26.112 0-36.352-5.12-5.12-11.776-7.67999999-17.92-7.68s-13.312 2.56-17.92 7.68L9.728 504.832c-4.608 3.584-8.192 9.216-9.216 15.36-1.024 2.048-1.024 3.584-1.024 5.12z" p-id="5480"></path></svg>