<?xml version="1.0" standalone="no"?><!DOCTYPE svg PUBLIC "-//W3C//DTD SVG 1.1//EN" "http://www.w3.org/Graphics/SVG/1.1/DTD/svg11.dtd"><svg t="1599634460947" class="icon" viewBox="0 0 1024 1024" version="1.1" xmlns="http://www.w3.org/2000/svg" p-id="3349" xmlns:xlink="http://www.w3.org/1999/xlink" width="200" height="200"><defs><style type="text/css"></style></defs><path d="M350.917 213.981c0 0 74.537 50.965 105.134 81.626 0 0 36.342-19.993 112.858-1.851 0 0 121.736-39.988 103.407-122.569 0 0-8.94 19.477-37.555 26.378 0 0-5.433-50.523-29.834-72.3 0 0-31.039-20.696-82.643 25.928 0 0-18.397-30.529-64.256-30.529 0 0-36.727 28.677-33.278 73.386C424.69 194.05 381.515 177.191 350.917 213.981L350.917 213.981zM350.917 213.981" p-id="3350"></path><path d="M469.719 542.528c0 4.664 2.169 9.582 6.511 14.82 4.41 5.237 12.455 9.195 24.208 11.816l0-49.822c-8.43 0.387-15.709 2.623-21.713 6.579C472.721 529.947 469.719 535.502 469.719 542.528L469.719 542.528zM469.719 542.528" p-id="3351"></path><path d="M532.249 641.786l0 59.396c9.194-1.788 16.862-4.659 23.056-8.746 6.261-3.963 9.324-10.479 9.324-19.547 0-6.963-2.553-12.84-7.474-17.435C552.175 650.855 543.873 646.382 532.249 641.786L532.249 641.786zM532.249 641.786" p-id="3352"></path><path d="M792.328 647.404C735.739 411.53 663.883 310.295 513.47 310.295c-162.553 0-220.419 137.772-278.797 327.851-51.862 168.81 114.456 265.19 278.797 265.19C677.936 903.398 833.334 819.024 792.328 647.404L792.328 647.404zM616.943 702.592c-6.326 11.621-16.48 21.648-30.597 30.144-14.114 8.563-32.066 13.927-54.097 15.843l0 35.001-31.812 0 0-35.001c-13.41-1.537-28.165-5.049-44.134-10.282-15.967-5.24-30.654-11.882-43.943-19.995l0-56.906c8.562 6.579 17.631 12.519 27.21 18.073 9.518 5.556 19.42 10.156 29.574 13.796 10.156 3.767 20.627 6.262 31.294 7.538l0-66.874c-25.484-6.132-44.898-13.924-58.377-22.866-13.411-8.941-22.415-18.331-26.888-28.291-4.468-9.839-6.769-20.185-6.769-30.788 0-9.705 2.49-20.12 7.47-31.104 4.984-10.989 14.307-21.144 28.039-30.339 13.733-9.201 32.576-15.203 56.525-17.947l0-17.693 31.812 0 0 17.631c14.946 1.851 28.805 5.169 41.515 9.896 12.776 4.727 26.633 11.564 41.579 20.506l0 59.396c-9.516-7.597-21.651-15.325-36.342-23.122-14.755-7.791-30.275-13.475-46.752-17.05l0 54.802c28.805 9.32 51.732 20.82 68.724 34.362 17.051 13.602 25.422 32.444 25.422 56.268C626.395 679.406 623.198 691.158 616.943 702.592L616.943 702.592zM616.943 702.592" p-id="3353"></path></svg>